<svg width="25" height="25" viewBox="0 0 25 25" fill="none" xmlns="http://www.w3.org/2000/svg">
<g clip-path="url(#clip0_210_487)">
<path d="M24.2187 16.4063L24.2187 14.8438L19.5313 10.1562L14.8438 14.8438L14.8438 16.4063L17.9688 16.4063L17.9688 18.75L9.05 18.75C8.44719 17.3703 7.07063 16.4063 5.46875 16.4063C3.31141 16.4063 1.5625 18.1552 1.5625 20.3125C1.5625 22.4698 3.31141 24.2188 5.46875 24.2188C7.07063 24.2188 8.44719 23.2547 9.05 21.875L21.0937 21.875L21.0937 16.4063L24.2187 16.4063Z" fill="#3EA7AF"/>
<path d="M0.781251 10.1563L5.46875 14.8438L10.1563 10.1563L10.1563 8.59375L7.03125 8.59375L7.03125 6.25L15.95 6.25C16.5528 7.62961 17.9294 8.59375 19.5312 8.59375C21.6886 8.59375 23.4375 6.84486 23.4375 4.6875C23.4375 2.53014 21.6886 0.78125 19.5313 0.78125C17.9294 0.78125 16.5528 1.74539 15.95 3.125L3.90625 3.125L3.90625 8.59375L0.781252 8.59375L0.781251 10.1563Z" fill="#3EA7AF"/>
</g>
<defs>
<clipPath id="clip0_210_487">
<rect width="25" height="25" fill="white" transform="translate(25) rotate(90)"/>
</clipPath>
</defs>
</svg>
